<mxfile host="app.diagrams.net" modified="2024-01-06T18:49:38.926Z" agent="Mozilla/5.0 (Windows NT 10.0; Win64; x64) AppleWebKit/537.36 (KHTML, like Gecko) Chrome/120.0.0.0 Safari/537.36" etag="8gvSQ-Ux3AmvIpKRZKIi" version="22.1.17" type="github">
  <diagram name="Seite-1" id="N_EaWLkp6oX0WocP8r3h">
    <mxGraphModel dx="1434" dy="738" grid="1" gridSize="10" guides="1" tooltips="1" connect="1" arrows="1" fold="1" page="1" pageScale="1" pageWidth="827" pageHeight="1169" math="0" shadow="0">
      <root>
        <mxCell id="0" />
        <mxCell id="1" parent="0" />
        <mxCell id="IiCHIhFrDBEjQnNPdRvh-1" value="" style="shape=image;verticalLabelPosition=bottom;labelBackgroundColor=default;verticalAlign=top;aspect=fixed;imageAspect=0;image=data:image/png,iVBORw0KGgoAAAANSUhEUgAAAjwAAAHOCAYAAACcvdMVAAAAAXNSR0IArs4c6QAAAARnQU1BAACxjwv8YQUAAAAJcEhZcwAAEnQAABJ0Ad5mH3gAAEYCSURBVHhe7d0HmFTV/f/xA0psGIxiL9g79gaKBQ3Ye+w1klh/isb+txE7P3tJFAtYf2rsXWyxdxB7R0RFUMFeEJj/vI/34rjswi7MzO6cfb+eZ57dmV22ce+5n/M95bYpFAVJkqSEtc3eSpIkJcvAI0mSkmfgkSRJyTPwSJKk5Bl4JElS8gw8kiQpeQYeSZKUPAOPJElKnoFHkiQlz8AjSZKSZ+CRJEnJM/BIkqTkGXgkSVLyDDySJCl5bQpF2ftl9eyzz4Y333wzTJgwIXtFkiRpUvPMM0/YYIMNwswzz5y9Un5lDzxff/11OOqoo8KPP/6YvSJJkjRlvXr1Ct26dcuelVfZA8/BBx8cQ88+++wTunbtGtq0aZN9RJIkaVKffPJJOPPMM8N3330XzjrrrDDnnHNmHymfsgaeDz/8MJx44olh++23D1tssUX2qiRJ0uSNGTMm9O7dOxZL9t133+zV8inrpOWPPvoovl1jjTXiW0mSpMb405/+FKabbrowbNiw7JXyKmvgKfPomCRJamUqlSVcli5JkpJn4JEkSckz8EiSpOQZeCRJUvIMPJIkKXkGHkmSlDwDjyRJSp6BR5IkJc/AI0mSkmfgkSRJyTPwSJKk5Bl4JElS8gw8kiQpeQYeSZKUPAOPJElKnoFHkiQlz8AjSZKSZ+CRJEnJM/BIkqTkGXgkSVLyDDySJCl5Bh5JkpQ8A48kSUqegUeSJCXPwCNpmvTr1y8+HnzwweyVxsv/7aOPPpq9IkmVYeCRNE0KhUJ44oknsmdN06ZNm3DffffFryFJlWTgkTTNvv322+y9KXvjjTfCY489Fl5++eXQtq1NkKTqsLWRVFZ77rlnuOSSS0Lv3r3DHnvsEfbaa69w++23x489/PDD4ZxzzgmXX355HMqiwiNJ1WDgkVRWDE+NGjUq7LDDDjHwTJgwIQwaNCh+jMrO119/HfbZZ59w0EEHhY8//ji+LkmVZuCRVHbt2rULXbt2Dd27dw8dOnQIX331VXx9xIgRYZ555gnrr79+WHbZZcN8880XX3cOj6RKM/BIKrsZZpghe6/YyLRtG6s8GD9+fJh++unj+2BIi7Bj4JFUaQYeSWVHsMn98ssvEycnzzbbbGHMmDFx4vInn3wSRo4cGV+XpEoz8EiaZrPOOmv23q8IOSDojB07dmJVp3PnzmH06NHh2muvDVdffXUc3oIVHkmVZuCRNE1mmmmm8Oc//zl7FuL7Cy64YPYshPXWWy+svPLK8f0NN9ww7LzzzjHoLLbYYqF9+/Zhu+22ix+TpEpqU+xZla1rxQqMK6+8MvTt2zfMPffc2auSJElT9te//jXmh9NPPz17pXys8EiSpOQZeCRJUvIMPJIkKXkGHkmSlDwDjyRJSp6BR5IkJc/AI0mSkmfgkSRJyXPjQbVo3HPp3nvvDV9//XX2imrZn/70p7D55puHJZdcMntFkn5TyY0HDTxqsfr37x+efPLJsM0220y855JqGzcMveOOO+ItJnbdddfsVUn6lYFHrc4HH3wQTj755HDJJZeEGWaYIXtVKfjhhx/CAQccEE455ZSwwAILZK9KkreWqGm33XZbfLz77rvZK7+5++67w3/+85/4+Omnn7JXp13+Ne+5554wYcKE7NXGyX/e+++/P3uleTz00EPxJpSGnfTMPPPMoVu3buHRRx/NXpGaV2lb/Oabb058n47XlAwcOHBiu6mWzcBTYc8991y4/fbbs2eTeu2118L3338f33/++efDgAEDwtChQ+PzqfXdd9/Frzs1+LcMJTW3b7/9NswxxxzZM6WmY8eO4ZtvvsmeSc3vgQcemNgW036WtqG0y7feemv27PfatGkTrrrqqvDVV19lr6ilMvBUWOmIIT0HHp9++ml8vuiii4Ydd9wxrLHGGuH999+PH3viiSfCuHHjwnvvvRc/Z2qsueaa8esussgi2SuTN3z48HhyE7Q4eVHGkU5JavFGjBiRvRdi+8kDQ4YMCY888kh8P2+XmYvGgop33nnHNrOGGHiq5MEHHwznnHNOHJdk0iYolzLnicoOvYtnnnkmnjRnn312GDVqVBg0aFD8/F69esXHaaedFl555ZX4bzkBjzzyyLD33nvHx1FHHTVxiICq0qWXXjqxUvS3v/0tnH/++XFODJ/Lc1Y+ge9x8cUXx3lX5513Xmjb1kNCUut2ww03hMsuuyy+zzxCKj8MXd11112x3aaic8YZZ8Q2k0plHnrUsnl1q7A89TNvgbDRqVOn8PDDD4enn346vk4PAZ07dw6zzz57PHF22mmn+NrNN98c5/6wmmW77bYLb731Vpzb8vrrr8ePMfy01157xQcnHSXXvAxL1Sb3yy+/xGXdK6ywQthqq63C2LFjJ35/QhKVpS233DJ+X74H7K1Iaq1oW3Mbb7xxfNujR4+w8sorx7bz2WefDeuss05se6nOqzYYeKpkrbXWCl27dg3LL798+PnnnycOa40fPz6+ZRJnjlDE53788cdh/vnnDxtssEHYZJNNYpWnS5cu8d8yx4Wvtd5668UH+5owhjx69Oj4NQg1pXhO2Nl6663j3Jgvvvgivj5s2LAw55xzhlVXXTV+7cUWWyy+Lkn6vfXXXz989NFHYfrpp4/hh+kIdCSt8NQGA08VcHLwQLt27eLJQdWlMWadddbsvRDWXXfdGEryFV0zzjhjfIt8NRNhqj5UmHL8DHnQ4uf4wx/+EF9D/laSNCk6j7TneZtLm0lF3Kp4y2fgqTBOAk4Q9h4BVRheKw0yDZlpppnCmDFjsmchzuFhfk+HDh1iaPryyy+zj4RY2eE1Plaf0uXphJzpppsuvs/Pwfh0vmImr/x48krSpP74xz/GhSX5qizaTJ6r5TPwVAEVFCa7MUGZVVjzzjtvXKEF3s9RsWGoij1wmOdDyZTVAEx25sH8Grbmp9LDv2cCc79+/eKkY+YCLbPMMrHECuYDlSqtKFEFyicnL7XUUjFU3XnnneGKK64w6EhqlUrb4lK033j55ZfjBOYlllgidiBpp9nCg3aZDqRtZ8tn4KkwTqLlllsurLjiinHsl5Nl5513Dssuu2z8OPNwcmy0x1yavMqy3377xdeovjCJbrPNNou7UIJJzIwnE4j4/I022ihOPM6tssoq2XshjjGXVn6Yp7P44ovH95kftOmmm8YqD1WoBRdcMH5dT16VG3PS8gfHNMdb6WtScyptixdaaKE4lxJLL710nENJJ5GgQ9tK+8uwFlV2Opl0Qm0zWz5vLaEWiaE7GqCePXtmr6jW0dSwqqU+//73v383z0xS6+StJSTVPOaYUeGsi2Faw46kSjPwSKqafE+TUt27d8/ek6TKMfBIqhom4tfFPDJJqjQDj6SqYTVLPhkULPFtzBYNkjStDDySqqp0WItdwiWpGgw8kqoq3ysKG264YfaeJFWWgUdSVbF/CfdvY0M3VmhJUjUYeCRV3eabb+7qLLV63HaInZrvueeecN9994V3333X21RUkIFHUtV17do17g4utVbs2jx8+PDwv//7v+Hoo48OxxxzTLjwwgvD559/nn2Gys3AI6mqaOi599uxxx4bVltttXgvuNKb5ErlQrXkhRdeiLfd4fYP//3vf1tMBWX8+PHhvffeCw8++GDYZptt4u0r7r333vDBBx9kn6FyM/BIqhpuYjt48OB45/+rr7463gD38ccf915aKruffvopPP300+HEE0+Mw0UvvvhieOmll353I+Vpwa1SuBEzAX5qcX+uGWaYIb7PTuS8n9/YWeXnX1ZSVdCzJuD861//inea5sJDA89ePDPOOGP2WdK0Y27MoEGD4hDRE088EY89jrOOHTuWJVAQdr766qvw1FNPhc8++yx7dVKEIYaoCPSjR4/OXv0Ve1JxqxWGds8777xw2WWXxUpPfmPnUvz8o0aNil+H76upY+CRVBXDhg0L11xzTbjjjjtio81FY7bZZguLLrqoq7VUNoQMhoUuueSSMHDgwPD999/H1+eff/4YMFglOK04djme+/XrF15++eXs1d/j53j//ffDpZdeGm+Eed1114WRI0dmH/21urPggguGfffdN8w777zx5+N9VjCWIuy88cYbsaNw5plnhptuusl5PlPJwCOp4ujd9u/fP/Ziv/zyy3jBoIQ/xxxzxB7t7LPPnn2mNPUIGax0orLzn//8J3zzzTfxWGvXrl1YcsklY8CgsjKtOHbnmmuuOC+ovooMGFI799xz4zH/7LPPxsnJhJ5S/CwEHSqcM800U/z56vr666/j16Gz8OSTT4a+ffvGToOazsAjqWK42LAShTk7F1xwQfjhhx+yj4TYyHOxWGSRRZy3oGnGsfb222+H888/P4ZrAkeuffv2cYJ8hw4dslemDYFnvvnmC/vvv3+YZ5554nBTXrXMMax21113xarSEUccEScpP/zww9lHG49z5pFHHon3oTv44INjAGJuUo7vyfeiI0Hlp/Qc0+/ZykwF5h68/vrrMbGzn8gCCywQG296qWuvvXZcXvjoo4+G7777LvsXtYETlsl9nJxdunSJvw+/F72OrbbaKpxzzjnh1VdfjRP1pCmhIf7www/j0MINN9wQvv322+wjv6JHu9RSS4WFF144e0WaesxvySs7P/74YwzRBBMwTNS5c+cw88wzx+flwPFN0Ln11lvjSsMbb7wxjBgxIvvorxtscj0ghNx+++3xe6+++urZRxuPNniVVVYJH330Udyvh3Z5hRVWyD76a7BiIQAhjyE2VqLlw3j6velOKsren2aMafKH//Of/xwTdWool37xxRfxgLroootiI84kTBI36Z0exSeffBJDActuCUYcnPwtylFGrRQCDGPeNBSMN7M0cujQobHR4PeiLMzySX5Xfj8mmjL3ggtWpXrmzzzzTCwZN1QuVsvHxYAS/lVXXRWPG3AecBHiYkFHgUmaa6211sQLkzQ1aKu4lNEmM3w6yyyzxCBNG0z71q1bt/CXv/xlkvkx04K5Naw0ZIiJ45s2i+/HMBc41pmfxhwfJunvvvvu4e9//3tsO0tRkeHrMOzWq1ev7NXf8DrVpOeeey5Wdvic3XbbLU7CBpWdk08+OS5vZziPydrLLrtsvcNjtYDhOq6ZldinywpPI3HSMA7LpLFTTjklpnpm5xMIShGKqJSw1JaKyKmnnhruvPPOGJRaok8//TTccsst8ffi5+WkpSdeWpoFvyefy4S5M844I/akWKFQa1UsVQfhn14t1R3CM8fPQgstFHum+bACYXaZZZZxOEvThIDD0nPmuLCfE8fXtttuG29My3FI8KCywsTgciLw3HbbbbFDSFWfFWDXXntt9tFfAw/HOz8LncMDDjhgqqqZ3IKF4bgePXrEsMSwFp2FHG0wc3sICH/729/iBOeGJlK3drY0U0BDTVmecuFxxx0XJ6A9//zzMclPDv+OGfr0OAhIjCuzD0RLGV/lJKW3wLwK5lfQE2euBYFtcvi9CX6UcAlz119/fexVUFaVwLF1+eWXxxDNuUPDz/yDffbZJwYcKqK8xnDW0ksvnf0rqekYLqKjdsUVV8TjisrALrvsEg466KA4vES7RHVkueWWK/uoA0Gd+TlUvOn8UWVafvnls4/+Jl8VRnCpD9VNvkZDHwefwzkDKj6leM7EZzoWVHeoYlEd16QMPJPByXLzzTfH9M58Hebl0Jg3BSfBkCFD4tgqgenKK69s9k3WXnvttfhzEMTogTMfqanzcmhcWPLJ34UL29133x1Lq2rd6GETggnENMA0xvRyjzzyyDgPgaFTQjUNNGX3vCwvNRWVHYI1nVGOO0IDYYf2GmwyCI47wnW5h005thmiWn/99WOHlq0VmP/YVHwdhnXXWGON7JWm4fsyXEZlh2kJO++8c1hnnXWyj6qUgaceNMgkZQIBY6MM+Uzrdt/MZ2CGPr2Rf/7zn3FMl9BQTfR4CCaEFMadCSzT+jMwt4dSMlUi5v+wjbvDXK0TxxLDt1RBqfrlJf3/+Z//CRtvvHGcdMnroMe90korxfelpqLjSfWcY412jWNtiy22iPN42OqAKjxTDghBBJ5OnTpl/7J8qPCsuOKK4dBDD41VHG5fwdBTU1F5Iigdcsgh2StNw7/fdNNN47nG785ePqwc06QMPHUwf4X5KUcddVTc6Inqx5SGrxqLMV96vZyojDlTGSGV150HVG5Ubyi58vvQINALoJEo1/elEkZvit1C8+ExhjIq/Xup5aCS+dBDD8WKIRVNOg2LLbZY+Otf/xrnMDCUy2R+euWU7in9O5ylpmJuIR0qlnvTTtOeEmpYDUVnkgs91R5WM/G5VBLZf2dyw0XTgtDD8BHVI+YO1TcfjddKh6G4nnAe0FlkmgM7QXPHdB7M/aSzze9FB4JrRo6vU9+miXxvVnKxCozg555WDTPwZGiwqXj07t07nHXWWXH4qlJDNIQqDnTKsZRfmehGAJnS/Jmm4sSiR03AIogQeFhFx+9aCYynU0GiekT4oaLFa+X+vdSy8P9LoGY+GCtJCLpM4KTMvuuuu8ZhK4ZRmUiZX4SYsEwjLTUWxw4LQpgMTxvNnjuzzjprvOkmQ6hM5OVzWC3M/EQCAqukONbqCyLVQBjhXKDyQ+ih7adzyLAvuy8zzeHwww8Phx12WKwUUek54YQTYhWe6RR0uGmvCTJMumYuXD6XR01n4MlwceYW/YQD5thUujrBRYIw8MADD8TJv1dffXVM/eVE2Pn3v/8dh+ZYssjXr3T4oEfC8B+TCPm+NE4tdYWaph3VQ44tAjU9VbAai0acTdno9RK82dKA0MMFgJUq9LptuNUUDGMxFYAtQagWUtFg5RKdxnyODscaYYfPZWk6rxMU+FhzoCJDSOFnzFd1scqVwEN4Y+4Oq7eo+PNgYj/7BXENog0l+PA7s9qMpfWcV1S0NHUMPBl6nczmr3Y1gu9HL4XvXe6yK5tPMW+CwFFaGq0GeiX0tFjK3tQJ0aoNNMLsSXX22WdPDDvsmnzggQeGPffcM84nAMcA5Xp6t1yk6HHTG2+uXrdqD8PmLL2mkkOlkCDBfjeEagJCPtTD0Gl+LDKZl7lidfe9qSaCFqumOObZ0qNPnz6xXWb5OHMemTrBubLddtuF7bffPg4BU/Xh99xpp51i+82/IShxnWBisx2FqWeLk2HFCGPAjAvnDXWlUdJnEylm+LNjc7mXTbIEmAaBlQTMp6jWiULpllUC7BfBiewSyfQQoJkYSqNNj5qK6Nxzzx122GGH+Cj9P6fil09WpvGnuuPNQtVYVG0YKqV9ZksMdO3aNQZr3pYOjXKcEa5p6+hEMk+MPXCaSz4MR2BhyJcJ1FS+CTkMdfGz8bPmFSiCG5UpNg2k3T7++ONjhYpKD7vgu4PytDHwFDH/gAabhphUzdgpQaRSjTIHObtRM6eGhE9Zk7BDzyXfkXZasacOJ1v37t3juDCl0M022yyePJUKPgQdQhbzNijhslqA5wyluWQ9LW+++WYcLmXOFo0w83ToodJIM2SVN+BU97gIUe0Dxx8XoXLd00i1hTapKWiXqdiw2IIJvbQxTFBmriXLwUvDDF+bjVNZEcvnMX+HY7EalUS+d74PDpP282F8fn46BgMGDAhrrrlmHLbibWN+JoIcv+Oxxx4bK0SsSMvnwYFOB4tDmBPEkLFt7JQZeIrYpIrETfmQkjtjpZQRmX9CpYLUXY4xYA5yGnuGALhY0BMmyXPBYAIbIYs5PeWQ31eFiw0XF0qlNBrsh0KDQXm0XOPa/F5cyAiL/+///b/4t9twww3j3+2xxx6LE5hZwaPaxxAsKwvpbXN+0Pvm+GL/Eyp6DGmVKh3O4uLEBYhjPh+CUOuy1157xW05CAFTmifJsUb1kNWshB3aK+bDMOeF9oVKSClWb3HxZ/4OxxqbAlZjeTY/F8czoYZrCXNBGX4Dw77cYwtMSq5vY8LJIbgRkKhmsWqLHf4558A5xW1b2PaBDiZbgpR7lCA1Bp4iSu70VLmvDycX6ZxyKOVSSvZMyGSceFoQCAg0TLijAsIQE0mdatIee+wRX6dnwJLKpmBsm/0muKhwIaKywzg2+6EQoljNwPsjR46MvwMXJXoM3IuFk6+0hzQ1qIIRCvOJd1z4aGSoALA/DxOyGY/mZFRt4wJET5LjikacxpwlsBxL9Li5wNRF4GE1DRcjGmM+h3NLrRc70NMm0AljyIZwkF/ES7FCKa/scOwxAZn2q2fPnpOEHTDRl8nMBCmON9of9n+iStLQgwo4gYF7H04Nwg4/C509fj6mQ+Q3XeZn5mdiQQw/B3v2EMY4b/gY79NWM98xr4Iz/MXfgo/xnAfBho4yc5ZYPcw5BTqadFz5nrS5XK/YAkINa1O86DatxjgZ9ObZwZdlyYzn1wp6qBxgHEC8z4RKerDci4XhH04eSoecpOwxw0Ha2D8bE5FJ6JxUnGB8fb4mgYDZ+tz2n4Od4MLXJKD84x//yP51wzhhGP6iR8OD0MaJTrBiQzfGfGkw+P6cLBtssEE8GRhDJuRwIlL+5UZtnERNXT5Oj4bQxjAZy0L5ukwO5OtQzSFA0pDl+/3wO/G7NRZVMAIZjZuaH8cmxxPnACGdTgH/31tvvXXcMI3GvG7FkIacHintARciwg4VQAL/5IZVORdK70lEOb9c1Ug1L7biaAgXbYJBly5dYieONpOKN0M3LCoh/HDsNLSdAe0ObRwBARwzjTluCOIMv3OclhPBhjmhXBN5S8eQEEaFk0oVHVHCP4GJihftL2GJ6hVzlRhxAG1tfg8uOpBUkeg8p4ogTH6gY1VuBp6iPPDkCD6EHkIClQtmxnMwcjFnvg8HLRPIJrf6iIOUCza9XwIB48mcqAQTliQyHEDoITyVKg08edIncOVhjJOT/zJ6JFdffXXcRJATPJ9onY/j0kiULnPnAsO8IQIKQ3bMVyL4cCHiZ+H/jvFh/s3kDgm+DruWEnBonNjhk4aK70uFiq9D759NtUoDlIGntjEHh0mXlNA5Rjh2ttpqq/j/SsCuL8BQVWQjQoZveZ/PYch4SqsROdY5xghRnAP1VY5Um/LJ6w3h/5rjibaNQEAby0R3gjLDOpMbCqWKTHtLBWlKw2Wl+PoMCTHk1FSEesIZ1wuGn0rRLjNqwPHM/BvabjqfVIK4/QOTl6nK8G8JgnSMCUMsNOEaQWWIdpTrD+0g1xGmJNCpLe0QlKLt5pzh78Z5xrWDEFVLHQYDT4XVDTzgAGG/Aw4u0j/LCBm+4WCi8b7ppptiFYj3S08u/h0TONnmnB4KF22CDmmf/UpI+qR5gk59JyWhgB4zFRiGD+hVUyXhRGd+BF+P9zkhqKJwstAj4HW+NyGKE4UeQt2l6Jx4hBN6GvTMqWDx/8RJQVi566674oPJd/yepYcGX5uLFRtocRJzZ14qPHxNGjF2NuXn4Wfmb1n3sDLw1C6OcSbYE1wI/TSkhGfmKtBgcwzUhwsPVUxCEsdTU3FeMuGeIdhaarDVMOZK1sUKWTpPnO905LjQURmkjWS1H///dDwnF3ZAG8ukYdrOhqrVHL9UKfk+tFF0FGnbWdTR1NW5fA/acvZuo+pCJbIUw1Msi6e9ZX4P7SztLdcH2m3aTdpgqjdcT7iNEVVT2nPOF9piXmNUgdtGEK4Y0uN8zFer1UV1lP2u+Dvwtbh2EAJraVVkJQMP/+ll89///rewxx57FIqJN3ulNhQPQK7O9T6KDW1h1llnLay77rqFYsNdKJ6EheKBXigevIUXX3yxUAw1heLBFD+3GGwKxYO1cNtttxWKJ1ahGDgKxQO38NRTTxX23nvvQvEgLxRP2km+R+njzDPPjF+3eGAXigGnUAwohWKPoFA8mQodO3YsFHs/hS5dusSvtemmmxYeeOCBQjHNZ79JIX6/Rx55ZLK/U/ECVSieiIXiBSv++y+++KJQDF+FTz/9tFDsaRR22mmnwkILLTTxZy0Gv8LKK69cKDY6hYEDBxaKgSZ+fvGCVigGr8Luu+9eKB6g8W9V93vlj2LgyX7CxileKAvFgJg9U3P55JNPCieeeGJhvvnmi/+PHAs9evQoPPTQQ/H4nhz+bbFnXihetOIxV/eYmNJjySWXLBR7+tlXUwq4PhRDT6HYoSkUO3PZq4XYnrz33nuFAw88MLantCVzzjln4dxzz41t7bSizaZNPu644wqzzz57PL5oI3v37l0oBqTss5qGtrYYdgqbbLJJbOPrGj16dLx27LrrrvFcGTVqVKFdu3aFNddcs1AMQYVix6FQ7DgUioGrMN100xWKwafQvXv3wuDBgwvF8Fa48cYbC8UOd+GNN96IX68YXgrbbrttbLsbQtt80UUXxfaYf7vKKqsU3n777eyjtYFrJdemSjDwFE0uHOQPDkhOFH4/DiAOdk7Sb7/9tnDvvfcWdthhh8Ipp5wSD0o+xgHO3+Gcc86JgYUDfXKBIH8QdHbcccd4gVl//fULJ510UqGY8AuXXXZZYcsttyzMMsss8fM6d+5cKPYK6r3o8FqnTp0m+dp1H5yMnHiErGKvoFDsQcTwxAlGQ7PBBhvEi87OO+8cvxeBiN+t2HMpPPzwwzHsLb300vEiWN/XL300JfDwd91rr73i31LNZ/jw4THsEK75P+T/uWfPnjHscBxMSbG3WSj2Ygu33357oX///oUrr7yy3se//vWveMyXnoeLLrpoPHe+/PLL7KspBe+880723m8434cNG1Y44YQT4kU6P9a48BGCCAr1PQgUpZ29hhB2+PwLLrggduRoh2lHd9ttt8IHH3yQfVbT8XVpC59++unYEa5rzJgx8dz5y1/+Uvj+++/jzzDTTDPFtpCgVBp4OnToULjwwgsL11xzTbxu1A08fK8PP/wwXgMITA3h56CtppPB+UQHnO9bSww8FdaYwJM/CC5UW0499dRYGQEBgwMtP/l4/4477ohpnROrMUEnf6y44oox7BAyOJH42jQI9Ib23Xffwvzzzx+/JpWeW2+9NX6sPoSs+r5+fQ9ODnpdBCsaHi5mnHBUWLggvfnmmxNfe+mllwrnnXdeDGPt27ev9+vV9zjooIMKL7zwQjxxJ/fg5DzmmGMKZ511VvabqDnw/9C3b99YZeT45bjfaKONCvfdd18Mxo1V3/9x6YNjiq9JuOZ7cKwQ1jm/DLytA9cLOosLLrjgxPaCNo428NBDD633cdhhh8Vj5Pnnn59i6Bk5cmQMO7SJVBrzqkteOakUqi0EGs6boUOHxusFbftpp50WO49UYbbZZpvCIYccUlh22WWzf/Urzgva92WWWWZiB5vKP9cUglpDqIYRprbYYovYiSBsEZRqSSUDj3N4iuqbwzMljCczcZcbvTEOy4Q0xk9ZHs5cByaVMWbbVMXwFXddZpkv82WKF5u41Jz5QqyOYZybORNM0GPsmXkULE2si3Fx5vM0VvFiE8egmTPD/CMmDvKz8P2LoSqOG7MBGBOcectYOK83FhPx+Hvw9SaHia3MD2J5u5oHky2ZU3DuuefGOWQcb8whYMIk87caWiXTVMUwH+caMLeLCaqcP0wgZa8WJqhyTy6lj712mCfJsdbYyxHtCHNUOCbze7bVh9WELKLI5+0w2b4YAuKGr8UAlH3WtCmGk3iLFebY8HMxx432l/mS7EHGtYBzidVnzGljeTnvM0eFxSzMr2HrBuYq5Tg3+HswL5J2njaeOT1sm8Lmnvy9ikEvztfJV3NxnjIPiYnRtNe031w7Vl999UkmVLdkzuGpsKZUeEofxYM7liwZEkIxCBTWXnvtOPxV3+c35sFcGXot9H5Bsu/Xr19hiSWWiOmeqgulTipB/K0p+dbFv6UKVd/Xn9KDMivfh/IqczDw3HPPFYonY+whTWkOUkOPxlZ41LwYoh0wYEChGHAmViZnnnnm2FtkvhaVy/oexcAS547Rk2Uoa0qoTNJjLQbbicO0DBkzh6PW5hxo2rz66qtxPiJtT2mbMaUH7TbVEoaV6sOQElMBaCtptxhOorLD9ytXW8PXoZ0sBo1YfadS07Vr19hGc4wPGTIktt3HH398kyqjpfgeVKmoBK2xxhoThwUZ7i0Gt1gF4nvwMzDXtNZVssLjxoPToPj3i5WhUaNGxedUMOhRNKXyURfpP6/sgK/HfWR++OGHuDMzH6eaNMMMM8SZ/PSK62JjKnrpU4OvR2+FO/XmtwNgr6Crr7469pDoeUwNft7895rcQ82LPZnYBJOeI8c3OPbY/mD33XeP+5w09GCPFKqb+cZoDeHrsncUe0UVw1LcaZyeKf+eFYouQ29dWO3J7suMDrCaaXIPNirk82krWMHF+7QtdXFMcZdxNo5lQ1aqLqwsZDUVFZBytjXFQBLbW+4byOarVJ1WXXXVWHHh52OVFnsEFQN+9i+ahjaZ1WDsm8aWImzZgGJHIVZc8x30qf7n1yLVz8DTwiywwAK/OxkpSbLBIOVXyqQM+XBBYd8bSrp1S7mfffZZXMbINuRTixOYIJeHKYIcZdv8Aqh0EXJ5cAyU4jlBvqEHQZhwzr+dXNjmGGLrAoYY7r333nhh4jjecccd4zYODKsafFsXhpkICARelq039GA3Y/Zmog0kTHDhJ1AQZkox1MPWHOwbxbHG8cQw+aGHHhqH6pmOUG78TNwTkU4p+1Pxc4Ewxp47nB8MbzF0VffcmhzaYIZ9OV8IOISqfHiKr83ePXzPLbfccuLmhGqYgaeFqdvYc/Jy0HOw5xsXMoeGXjc9FeY85Ag7bIpIT8mLhqZGjx49YoPN8dZUVB7ZOba+OWU55rixpw9zwQhGfB8aa+ZhGHY0OXS8mNdCsKYtzOfJEH5yhG9uRcGmflRUCBfscM+cSAJJueafNRZBiI0DCfSEL+bgDB48eIodUn5ufk82uiUo0fFlXiM7NHuOTD0DTwvHLpnsvslFhIOeHTkZcuIGoGz6lqf9POwwFMVJTblXaiqGkxiWYjdlwvbkHkzSZHIzvWYaYYalCC0cs/UhrHP83nbbbbHBJyCx4RyTMLmrvg25GkJlkI382BmetwRljruOHTtmn/ErFnOwKzNVEUIDIYfNK2kvqx12wDHN5GHCyh577BF/fiYu33LLLXHYmMnFnEf8rDzoyFLB5+dnQ0MmO/OcW0l07959spsqasoMPC0cuyuzqoDSJWPSrDhg9QonDyc8DQG7aeZhhzInu3E2dNGRJocGmpI/wwRTetDjZldueqL0ZKnuUMonyNTFShLCDjuEs8KP45Q5FYcddlg8tvn3UkOo3DBcyu7EXPAZvmGYv3T+DmGCHZPzuTJUQ3jOvBeO1+ZA+8zxTthn9SFtM78L5wIrfKl2/t///V/cWZoQxIouhuL69OkTXycscY4QmJiLxE79+VQDNZ2Bp4WjV8L25ISagQMHxsoNk0fz17j/Vb9+/eIJxMnPpE/GdEvLvFIl0DtlIjvVGo5TqjuE8bqVGuagcS8hhlr5N1x8GDqjIWfJbCXmVCgtzIEhNBB6OL4YzsrnrBCAmBtz3HHHxYm9fJzgzQRlQnVpKKo2fm4mHLPknOOceUhM0Ob4p8PAsnOWX3PrHcIZt9Rh/hG/AxOSCT4MMXNbH35HPp/FKpo6XhWLWko44CAv7elyInOCcwNG0j53DGbS2pgxY+IkNla5MDbNx5m8zKQ8wk59PWypnDg2KbXT46bhZuIpPe58BUmOodb+/fvHFTasIOH45qa8HKsMN9TS/iBqPgz7MMxDuKbqweRl9mqhWsLQEKuUmARPRYWww/5k22+/fQwKlcR5QAWH78vPxvNSvE57zc9I+OF4ZzUVq81owwlC7KlDxZ6J2dwzjMoPlRwCEL9Lfn3ia9X9+uB1FpXwN+J7MByt+hl4ijgp6vZKmwMXAw5aKjeM1VKaPf/88+NYLmGHE4BhLMapWc7LHdtZTcXYLsshmRiXhx16Ey3hdwInrL34tBByuJMzoYcGl8oO83BKLzAEHFYMEnao8tDYs0knPW/CjseEGovjjQ0KOdaYZ0bgoX1jc1XCwwMPPBDDD8ch7SQrvqZm4n1T8LMwpEtnNJ8sTcWzMWjr+T3owNJpZSUXw1ZU6Nn4tW7HYXK4ZrB1CZ0PrgcMjxGyNCkDTxEHXksJB4QYQg7VG8Z7OZmYx8PEu0033TSOR7NLKKVOHvQS2Ddls802i73sHL2gljIvggtdLd2tV1PGBYi7oef7fnAOLbnkkvF90Nul/M6d0rkogN2amXzJqpnSY1WaHKoaXMxZ4UdIJlhzvBEuaPvY4Z95LXQK2dqAjl815uwwtMScGx7sj8b0Aib8NxVbM1DRmZp/CyZxU0WlY8nfhr2H6BRrUgaeIkqJ9Ayac2iLygyrsZjjwMRkLhashCHIEGx4y1g0PWjmPdCDoUfASq36wgRj3JNbHlxN/F40UEoHVUguQiwt55ikoc3nVPAat0FhhQkTLekJcxsWerIcxw65qikIFkzopT1kzybmL7IPGRd2Kt1UNeadd944HERb3tBtJsqNqs6TTz4Zh5H222+/OMTGBoOlOPapwPC2of2pCGtUr5jr0xC+F8NWhL+6X4evz3lGZ5iwx+gA1VdNysBTtNtuu8UKCsNF1Z5TQBWG+6lwwjB0RXWHEi0hh8nI7MFA76GpP9fWW28d79fSnBcXqmY0RJRtueApHVR3CDw05FR2OnfuHAM5vVVWYrHfCI0wDTTDD0zK5DhoKSFctYPhGebngFBBwKZyyO7fVBhZyME+Tvvss88ky9QribabFYYMnbHVAlVPqpc5jn3mYBJkCDWssqVD21T5hG328WHZOn8LVkbmWDBAh4NVakx4puPBNUWTMvAUESY4YRhGYhM0JopVejiIahJhgDkNTLDjwQZV7EvCzdMIYVRypvYCwXbmjAczw59GotrVK0rPVJkYwqAhooKmNNDbJPDkQ1X0uAk89DRpjNkegQaaMERDzKTMTTbZpFn2QVHtYy4je5Dl2yE8+OCDcaifCfFsv8EEeNqZau89RhvHZGPaamy44Ybxprc5KlKsnmV+DR0+Vikyv6apqOjwbxnCY7NZlrIzZylHhZ+9rFglyfWC9pZrhyZl4MlQjWDyL3Ni2LiK5YzMMyj33B6+HgGLXi9VHe4UzTJzNm0rJ05Glj4SpDgZGPqiHFzu36cugiLhhgscvXomqDKc1ZzDhSovlscyX4ESO3PFCDVceCjns2JwyJAhsXdLA0x4Z3ktx57UVBxHVEYI2TwI2Wy8SmWHak7eOaRTV220aVQ3aWOZg8N1g3MhR+ChCsXPyR3PGYbLK1VNQdX0nnvuiXM5uVawpxX3vMtR8dp8883jhobnnHNO/HuU+3qSCq9CdXDisEEU+yEwHkwyL9cEuHz4iqoLw1bMaWBzrEr2fFkCSfBgqSMnArP/K7E6hiDF34meBb2ck08+Oe454Y7P6SHs8EBePmcOAsOxvKV8zz3haJxZfeIxoKnFKsB8Ai6Bh8nwVDwI0LQvVDO4vUSlO3IN4fsypEXgp7pS+nPQztKxZRiKKg/TC6h6NxXtKkGKoT1uukuYqTsnkk40fxOqPVZSG2bgqQcHLQcm1Rc2iSIoMPF2aoe5+HociFSNWGFFmGLojN5xNTCJj+/Nng+ErJ49e8aLULmqLpzYnJDsAUQvh8oVJ7orcdLDPAXuZ/Thhx/G45pqHvMUmGvGfX+o+jBUyxADvVreL70ISE3BBZ5JuDmGSbmgM0eRScrVmH4wtfg56Wwy5EtlijZ/7733zj76KypY7JvDxGwqQuzpUxftN6vPONdYLEA7yx5DarrpTuLe8mVCw8eN0bi4prASg2RNWZ7Z7/nwFimbuQo5Jmpyp1+Gj5gZT/mV0mWOciMXfyZsctAy1EP4aY4hHnog/KxUffgZuHjRY6pv504+TiWKHvwjjzwSGx56KqX4HSjXMhSYX+CoWBl00sU8AuYhMEEy700yx4LznsoON7OlwsdQJseGYUdTi4oOk5MZKiUYgDaZW+1QQaay2JKHyvnZqHTS/jNXk3aSYan8nCC8EXDYq4rfkc4C1Zu6t8ygQ0mHm7aVr8PEaJ6nem6x8o78wB3uy80KzxRwUFGuZFIzd+ClV8F+IvkBycfzk47384OQg5REzsnJcBI7gTI8VonhpKag9MmJw7gz1RiWMTIOXXqCNQbhic3jCDqnnnpqXCbPyd1Se1uadjTQrMxiwjJYDszQFnN6uDgxtMAwMMcCYSjVBlnVwXAWxxerlMBFkCoJGwvS1tSCfBoDk/rZJ6j0nOCcoQNBqGNEgc41k5yZ8F8X7TMfp7PanEN4tc7A00j0ZAkKrAjgni2UFTmQGRqirAqCERUR5gExY5/PZRiJvUfo7bak3gjBi5+LMMaSfH5eeud5YCkNb6UnF4GJ35eglP9bSrbNHeRUeWxwRgOdL62lwaaqw1uOfcrslOw5B2yQNa1YhcXxBi74VDfYjJVwkMLxRQeCCclUzqlmsP0IFXcq76oMA08TcJLRc2XH47wyQtrOJ5ARaggDzFtgiItQxOe01LIr4YYqFJO0mUTNigeqUEx+o/SaL4mnN8UFjbthM1zJPCA+n/ftybcezB/gAlR34zOGbRn+pApKOb4lDzOodtCu0MFiiJxVplR22PeG11LAeUKbypAXO+wzdYDfj9dUGbZMU4FZ+VRHOEi5fwpjsyAksNU58xm4E3StHLgEH0409kshzBHY2IQxX9rIhGTKsewBwZAFk7gJSl7YWg96o+yFwpAWvdIclU+GsBgi5fhwSFPlQpuz2mqrxYo5bdPaa69dthWzLQHtJ+0o1w+G79hMkEq7gady2hQbskL2/jTjniZskNS3b99m2RdBUmUwX4d7BnG7iHzbelYZUtmh4kdANgCrVjBPhs4qb+tbtFFpTAFg6JdhOkYFrJL/hpEG8sPpp5+evVI+Bh5JU8TSYJaes4syc3mocrIrOCsPmbze1EnvUnOhQsmu+twChWM5XwFWTQQcpg6wqIV5kEwN0K8MPJKaFSuzTjvttFjlYdUM87dYecj92tyGQLXk2WefjQtPOKZZ4s1mrNVGB4Ido5k+wBL70ntwtXYGHknNitUj3NyWZbPMVWO1DPd+S2lOhVqHu+++O7D9HIsyCO3sTVZt3AiUKhMr0VgA4kaCv6lk4HHQXdIUsdsrE0fZ5v+mm26KN6c17KgWMYRFP58J96w+ZWuRaj9YEMLqRn6O5hhSa60MPJIkKXkGHkmSlDwDjyRJSp6BR5KkEuwoPmTIkLj/lNJh4JEkKcO94gYMGBAOOeSQuNHm66+/Hu8Xp9pn4JEkKcNd2blHIrd76NevXzj77LPDSy+9FFdUqbYZeCRJyrBcfNttt427iLMx4D333BPOOOOMcOedd8admVW7DDySJGW47QM3Lt1xxx3DCSecEHcTf+qpp8KZZ54ZbrzxxjBq1KjsM1VrDDySJJUg9Mw555xho402CocddljYZJNNwvDhw8P5558fLrroovDWW285r6cGGXgkSaqD0MPwFrdQIfRwywPm8Vx99dXxJrrvvfde9pmqFQYeSZIawC0ollxyybDKKqvEqg/3v3rjjTfCl19+mX2GaoWBR5KkBrAXz8CBA8P1118fqzrLL7982HzzzcOiiy6afYZqhYFHkqQ6GL76+uuvw6233hrvbP7YY4+FlVdeORx11FFxFRc3AVVtMfBIklSCO5iz2/LFF18cJyp/+OGHoUePHuHQQw+NE5jnnnvu0Latl89a4/+YJEklBg0aFHdZvuSSS8K3334b9tprr3DEEUeErl27xo0JMXbs2PDmm2+Gu+66K9x2222TPO69997w7rvvxs9Vy2DgkSQp8/nnn4dbbrklBhl2XD7ggAPCPvvsE+fusGorx3wedmI+8cQTQ58+fSZ5sIcPK7qY5KyWwcAjSVJmhhlmCIsttljYZZddwrHHHht23XXXsNBCC8Vl6qVmmWWWuEEhH1tggQUmeXTq1Cnu1MwqL7UMBh5JkjKzzjpr2GKLLcLBBx8c5+00NF9nvvnmCzvttFOs8Jx00kmTPI4//viwzTbbhA4dOmT/Qs3NwCNVAKs79t577+yZpFpBJYeQs+CCC/5uCKuudu3axUoOK7dWW221SR4rrbRSrPDUrQyp+Rh4JElS8gw8kiQpeQYeSaoSNrOT1DwMPJJUJa+88kr2nprL9NNPH6abbrowZsyY8Pbbb8f/k2o/uNv6F198ESdDMxdI1dGm2OMoW5eDrbevvPLK0Ldv3zjpS2qtmLTcu3fv0L9//+wVtXbjxo0LZ599drw1gZoPIefoo48OTz/9dFx+Pvvss2cfqR7C1vvvvx9vSHr66aeHFVdcMfuIuCs9+YG/S7lZ4ZGkKnj88cfjXbbVvBZeeOGw1VZbxbDBLsoffPBB1R90iFZYYYW4bH3xxRfPfjJVmhUeqQKs8Kgu9mYZOnRorPAsu+yy2atqDqNGjYo7JX/55Zdh/Pjx2avVw1AWlaUlllgi3oTUpeu/qWSFx8AjVYCBR6W4GWW+LxPDF4cddlh8X9LvOaQlSTWMm1HmmLQqqfoMPJJUYffff3/23q9L072LtlR9Bh5JqrC6Aac0AEmqDgOPJFUQQ1h1J6UOHjw4e09StRh4JKmCqObUXRvCyqBhw4ZlzyRVg4FHkiroj3/8Y+jSpcskj/vuuy/7DEnVYOCRpArab7/94oPN7l5++eWJz3lIqh4DjyRJSp6BR5IkJc/AI0mSkmfgkSRJyTPwSJKk5Bl4JElS8gw8kiQpeQYeSZKUPAOPJElKnoFHkiQlz8AjSZKSZ+CRJEnJM/BIkqTkGXgkSVLyDDySJCl5Bh5JkpQ8A48kSUqegUeSJCXPwCNJkpJn4JEkSckz8EiSpOQZeCRJUvIMPJIkKXkGHkmSlDwDjyRJSp6BR5IkJc/AI0mSkmfgkSRJyTPwSJKk5Bl4JElS8gw8kiQpeQYeSZKUPAOPJElKnoFHkiQlz8AjSZKSZ+CRJEnJM/BIkqTkGXgkSVLyDDySJCl5Bh5JkpQ8A48kSUqegUeSJCXPwCNJkpJn4JEkSckz8EiSpOQZeCRJUvIMPJIkKXkGHkmSlDwDjyRJSp6BR5IkJc/AI0mSkmfgkSRJyTPwSJKk5Bl4JElS8gw8kiQpeQYeSZKUPAOPJElKnoFHkiQlz8AjSZKSZ+CRJEnJM/BIkqTkGXgkSVLyDDySJCl5Bh5JkpQ8A48kSUqegUeSJCXPwCNJkpJn4JEkSckz8EiSpOQZeCRJUvIMPJIkKXkGHkmSlDwDjyRJSp6BR5IkJc/AI0mSkmfgkSRJyTPwSJKk5JU18Mw///zx7SuvvBLfSpIkNcb3338fxo8fH+abb77slfIqa+BZfPHFw8wzzxyuvfbaMGTIkOxVSZKkho0ePTqceOKJ8f1tt902vi23NoWi7P2y+Oyzz8Kxxx4bU5rUmnFqtWnTJnsmSZqSHXbYIWy22WbZs/Iqe+ABYWfgwIHhjTfeCBMmTMhelVqPcePGhbfeeissv/zy2Stq7X7++efwwQcfhGWWWSZ7RVJunnnmCZtsskno2LFj9kr5VSTwSK3d119/HXr37h369++fvaLWbsSIEaFPnz7hkksuyV6RVE2u0pIkSckz8EiSpOQZeCRJUvIMPJIkKXkGHkmSlDwDjyRJSp6BR5IkJc/AI0mSkmfgkSRJyTPwSJKk5Bl4JElS8gw8kiQpeQYeSZKUPAOPJElKnoFHkiQlz8AjSZKSZ+CRJEnJM/BIkqTkGXgkSVLyDDySJCl5Bh5JkpQ8A48kSUqegUeSJCXPwCNJkpJn4JEkSckz8EiSpOQZeCRJUvIMPJIkKXkGHkmSlDwDjyRJSp6BR5IkJc/AI0mSkmfgkSRJyTPwSJKk5Bl4JElS8gw8kiQpeQYeSZKUPAOPJElKnoFHkiQlz8AjSZKSZ+CRJEnJM/BIkqTkGXgkSVLy2hSKsvclTaOjjjoq1HdKderUKRx44IHZM7VGI0aMCH369AmXXHJJ9oqkarLCI5XRCiusEEaOHPm7x6hRo0LPnj2zz5AkNQcDj1RGG220Ufbe7y2++OLZe5Kk5mDgkcpo7rnnDn/4wx+yZ79aaaWVsvckSc3FwCOVWdeuXbP3frXxxhtn70mSmouBRyqzHj16ZO+F0KZNm7D00ktnzyRJzcXAI5XZ/PPPH9q1axffX2655eJbSVLzMvBIFbD66qvHt67OkqSWwcAjVUAedDp37hzfSpKal4FHqoCFF144LLXUUnEOj4RXXnkljB8/Pm5AKKn63GlZKuI0eOmll8KwYcOyV6bdZ599FuaZZ57smVq79957L3zzzTdhySWXDO3bt89enXrTTz993OhykUUWyV6RNDkGHrV6hJx//vOfYdy4cdkrUu2gmnjSSSdZTZSmwMCjVo0hhl69esUKzwEHHBCWX3757CNSy/bLL7+EO++8Mzz00ENxNeCRRx6ZfURSfQw8atUGDhwYrrvuunD44Yc7wVg16dxzzw0vv/xyuPTSS8OMM86YvSqpLictq1V7991341srO6pV3bp1i2+ZMyapYQYeSaphbdvajEuN4ZkiSZKSZ+CRJEnJM/BIkqTkGXgkSVLyDDySJCl5Bh5JkpQ8A48kSUqegUeSJCXPwCNJkpJn4JEkSckz8EiSpOQZeCRJUvIMPJIkKXkGHkmSlDwDjyRJSp6BR5IkJc/AI0mSkmfgkSRJyTPwSJKk5Bl4JElS8gw8kiQpeQYeSZKUPAOPJElKnoFHkiQlz8AjSZKSZ+CRJEnJM/BILci4cePCM888E4488siw4oorhllmmSW0adOmKo+2bduG2WabLayzzjrh1FNPDa+++mr2U0lS7TPwSC1AoVAIY8aMCRdccEE4/vjjw5133hk++uij8PPPP2efUXn8DD/88EN4++23w4033hh/jgEDBoSffvop+wxJql0GHqmZETRGjBgR9t9//3DeeeeFhx9+OIaOr776KowfPz77rOr45ZdfwhdffBGrO/fcc08444wzwnHHHRe+/fbb7DMkqTYZeKRm9t1334WTTz453HrrrWH48OHZq82P4bV33nknXHPNNbHyNGHChOwjklR7DDxSM2LI6vrrrw833HBDrK60NFSfqPhcddVVcZhNkmqVgUdqRt9//324/PLL4/BVS0Vlh8oTlR6rPJJqlYFHaiYMGT3//PPhtddey15puahEvfzyy2Hw4MHZK5JUWww8UjMhRDAxuBZWQTG0NXr06HDfffdlr0hSbTHwSM2ECs+QIUOyZy0fwYwqjyTVojbFnlshe19qdS6++OI4rMR+M2y+V03M21lvvfXCK6+8kr0SQocOHcIVV1yRPWteo0aNCv/4xz/Cjz/+GJ+3a9curLvuuuGhhx6Kz6fF559/Hu6///7w9NNPx8pRtZffVxrHEptGLr300mHjjTcOK620UvaR8hs0aFA4//zzQ58+fcLCCy+cvSqpLgOPWrXmDjzdunX73RyeueaaK4wcOTJ71ryGDh0aL9TffPNNfE7gWXvttcOjjz4an08tghQToPv16xc+/vjjWDlKbTI0xxJ/rznmmCN07949HHzwwWGNNdbIPlpeBh6pcRzSklQ1zFt64YUXYtBkjx92dk5x5Rf9yLFjx8YNJZmnxdYDLXklntQaGHgkVQ3DV48//nisHrUWBB2qiM5/kpqXQ1pq1RzSalglhrTefffdeI8u7tWVY57L3//+9+xZGl566aVw3XXXZc9CWGqppcKxxx4b9thjj+yV8nFIS2ocA49aNQNPwyoReLhH2DHHHBNuu+227JUQNtpoo3DzzTdnz9JAoNt3332zZyEstthi4eijjw69evXKXikfA4/UOA5pSWpW008/fVydltJjpplmyn6739i3lJqXgUeSJCXPwCNJkpJn4JEkSckz8EiSpOQZeCRJUvIMPJIkKXkGHkmSlDwDjyRJSp6BR5IkJc/AI0mSkmfgkSRJyTPwSJKk5Bl4JElS8gw8kiQpeQYeSZKUPAOPJElKnoFHkiQlz8AjSZKSZ+CRJEnJM/BIkqTkGXgkSVLyDDySJCl5Bh5JkpQ8A48kSUqegUeSJCXPwCNJkpJn4JEkSckz8EiSpOQZeCRJUvIMPJIkKXkGHkmSlDwDjyRJSp6BR5IkJc/AI0mSkmfgkSRJyTPwSJKk5Bl4JElS8toUirL3pVbn4osvDs8//3wYMGBAaNOmTfZqdXz11VehW7du4bXXXsteCWGuueYKI0eOzJ41r6FDh4aVVlopfPPNN/F5u3btwtprrx0effTR+Lyxtt122zBhwoT4/nfffRfeeOONMGLEiPgc/M5dunTJnqVh+PDhYdCgQdmzEGaZZZawxBJLhE6dOsXnHGtt27YNt9xyS3w+Lfg+559/fujTp09YeOGFs1cl1WXgUatm4GlYuQLPnHPOGX9X0NwQfkqbHf7u0003XfYsDfx+48ePz579+jvmIQczzjhjmHXWWcOnn34an08LA4/UOA5pSaooqhrjxo2LD0JA3T4Wz/OPp/IoDTvIg17+8fbt24ellloq+6ikajDwSKqo1IarymH++ecPG2+8cfZMUjUYeCRVFMNgM800U/ZM008/fazubL/99tkrkqrBwCOpogg8+++/f/ZMq666ath7772dbyNVmYFHUkXNO++8Yc899wy77rprcpOTm4JJyyussEI48MADQ9euXVv130JqDgYeSRXFEM7SSy8dDj/88Hixn2OOObKPtB6sylp33XXD8ccfH7bYYosw88wzZx+RVC0GHkkV94c//CEst9xyMfRceOGFYauttgoLLbRQvPDnS7VTQjWH35kl+WuttVY48sgjw7nnnhsnKs8222zZZ0mqJvfhUavW3PvwdO/ePQwePDh75de9bhjuaAl++umn8OKLL05cYs0FfL311gsDBw6Mz6cGzc2PP/4YPvnkk/j7jx07tt6l6rUu33eH/0+WoLO/UseOHSsS7tyHR2ocA49ateYMPGzot8suu4R77rkne6Vloxqz4447hiuvvDJ7RS2BgUdqHIe0pGZCxWSDDTbInrV83B5h/fXXz55JUm0x8EjNhMCz2Wab1cScDoZiWG21ySabZK9IUm0x8EjNhBDBjrs9e/bMXmm5GM6iusM8FEmqRQYeqRkRJI444oh4J+2Wiom3K6+8cjj00EOrPs9JksrFwCM1Izaf69y5czjzzDNDhw4dsldbDqpQiy22WDjllFPiTUAlqVYZeKRmxlyeHj16hGuvvTYuU28pVRSqT1tvvXXo169f3EvG6o6kWmbgkVoAVkARei644IK4Md+2224bFl100bhDb7UQaPg5lllmmbD77rvHJft9+/aNdzsnlElSLXMfHrVqzbkPj1QO7sMjNY4VHkmSlDwDjyRJSp6BR5IkJc/AI0mSkmfgkSRJyTPwSJKk5Bl4JElS8gw8kiQpeQYeSZKUPAOPJElKnoFHkiQlz8AjSZKSZ+CRJEnJM/BIkqTkGXgkSVLyDDySJCl5Bh5JkpQ8A48kSUqegUeSJCXPwCNJkpJn4JEkSckz8EiSpOQZeCRJUvIMPJIkKXkGHkmSlDwDjyRJSp6BR5IkJc/Ao1ZtxhlnjG/Hjh0b30q1ZsyYMfHtDDPMEN9Kqp+BR61at27d4ttrrrkmvpVqybhx48LNN98c2rZtG+add97sVUn1aVMoyt6XWqXTTz89vPXWW6Fjx45hmWWWCW3atMk+IrVcP//8c3jxxRfD+PHjQ69evSaGd0n1M/BIRddff3148MEHw4QJE7JXpJavffv2YZ999gmrrLJK9oqkhhh4pBL0lqVaQCWSoSxJjWPgkSRJybN7IEmSkmfgkSRJyTPwSJKk5Bl4JElS8gw8kiQpeQYeSZKUPAOPJElKnoFHkiQlz8AjSZKSZ+CRJEnJM/BIkqTkGXgkSVLyDDySJCl5Bh5JkpQ8A48kSUqegUeSJCUuhP8PCzsPrCNjGhkAAAAASUVORK5CYII=;" vertex="1" parent="1">
          <mxGeometry x="20" y="20" width="334.29" height="270" as="geometry" />
        </mxCell>
      </root>
    </mxGraphModel>
  </diagram>
</mxfile>
